<svg width="201" height="40" viewBox="0 0 201 40" fill="none" xmlns="http://www.w3.org/2000/svg">
<g clip-path="url(#clip0)">
<path d="M83.4128 24.1341C83.1941 23.5137 82.8392 22.9502 82.3742 22.485C81.7943 21.9409 81.1354 21.4878 80.4198 21.1411C79.4327 20.6464 78.4112 20.2234 77.3632 19.8755C77.3289 19.8743 77.2949 19.868 77.2625 19.8567C77.224 19.8443 77.1887 19.8239 77.1586 19.797C77.1175 19.8001 77.0762 19.7925 77.039 19.7748C76.9997 19.7605 76.958 19.754 76.9163 19.7558C76.8348 19.7278 76.7528 19.6994 76.6709 19.6744C76.5889 19.6494 76.5074 19.6205 76.4255 19.5925C76.3712 19.5927 76.3173 19.5853 76.2651 19.5705C76.2079 19.5581 76.1528 19.538 76.1012 19.5105C76.0323 19.5126 75.9634 19.5052 75.8965 19.4886C75.8399 19.4751 75.785 19.455 75.7331 19.4286C75.6257 19.4036 75.5096 19.3751 75.3869 19.347C75.2642 19.319 75.1349 19.2931 74.9995 19.2651C74.5653 19.1297 74.1529 18.9881 73.7594 18.8369C73.3749 18.6934 73.0006 18.5242 72.6389 18.3303C72.3145 18.1673 72.0397 17.9206 71.8427 17.6157C71.6661 17.3282 71.5749 16.9964 71.5797 16.659C71.5689 16.3674 71.6554 16.0805 71.8256 15.8435C72.025 15.6025 72.2964 15.4317 72.5999 15.3558C72.9793 15.2414 73.3678 15.1593 73.7611 15.1104C74.1796 15.0569 74.6376 15.003 75.124 14.9465H82.8229V11.7708L75.4513 11.8527C74.4691 11.8472 73.488 11.9218 72.5179 12.0758C71.6682 12.2127 70.8349 12.4374 70.0315 12.7462C69.2904 13.0028 68.6777 13.5369 68.3225 14.2361C67.9123 15.0934 67.7168 16.0376 67.7528 16.9873C67.7383 17.705 67.8701 18.4181 68.1402 19.0832C68.3994 19.7002 68.7955 20.2504 69.2984 20.6919C70.5312 21.6695 71.9635 22.3646 73.4943 22.7283C73.6577 22.7848 73.8277 22.8382 74.0039 22.8917C74.1801 22.9451 74.3659 23.0021 74.5547 23.0556C74.6346 23.0828 74.7167 23.1027 74.8001 23.1152C74.8821 23.1309 74.9754 23.1498 75.0837 23.1783C75.1634 23.2057 75.2456 23.2257 75.3291 23.2379C75.4123 23.2528 75.4943 23.2739 75.5745 23.301C76.1976 23.4899 76.7738 23.6818 77.3058 23.8707C77.7876 24.0396 78.2563 24.2438 78.7081 24.4816C79.0727 24.6601 79.3873 24.926 79.624 25.2558C79.8286 25.555 79.9357 25.9101 79.9307 26.2725C79.9428 26.5773 79.8733 26.8799 79.7296 27.1489C79.5936 27.3778 79.3749 27.5457 79.1187 27.6179C78.8491 27.7243 78.5681 27.7993 78.2813 27.8413C77.9778 27.8829 77.6718 27.9028 77.3654 27.9009H76.8777C76.8206 27.9011 76.7643 27.8871 76.7138 27.8602H76.2261C76.1946 27.8588 76.1637 27.8509 76.1356 27.8367C76.1074 27.8226 76.0825 27.8027 76.0626 27.7782H67.7506V31.3224H76.2427C76.3188 31.325 76.3941 31.3387 76.4662 31.3632H77.7318C77.81 31.3373 77.8917 31.3235 77.9741 31.3224H78.7296C78.9128 31.3225 79.0958 31.3087 79.2769 31.2812C79.818 31.2025 80.3463 31.0524 80.8479 30.8348C81.3521 30.6145 81.8239 30.3264 82.2502 29.9785C82.7316 29.6004 83.1042 29.1014 83.3299 28.5324C83.6093 27.8104 83.7544 27.0435 83.7581 26.2694C83.7675 25.543 83.6507 24.8205 83.4128 24.1341Z" fill="#006838"/>
<path d="M102.216 15.1309C101.826 14.2909 101.24 13.5569 100.507 12.9907C99.7575 12.3991 98.9093 11.9442 98.0016 11.6467C97.0602 11.3432 96.0762 11.1922 95.0871 11.1997C94.5541 11.196 94.0222 11.2497 93.5008 11.3601C93.0207 11.4661 92.5556 11.6312 92.116 11.8514C91.6778 12.0681 91.2497 12.3052 90.8316 12.5626C90.41 12.8207 90.01 13.0849 89.6292 13.3588V3.07568H86.0853V31.3207H89.6292V19.772C89.6294 19.642 89.6432 19.5123 89.6703 19.3851C89.6953 19.2497 89.7238 19.1081 89.7518 18.9569C89.7799 18.8057 89.8058 18.6673 89.8338 18.5289C89.9719 18.0607 90.1631 17.6097 90.4035 17.1848C90.6649 16.7283 90.9798 16.3046 91.3417 15.9228C91.7439 15.5257 92.2317 15.2259 92.7676 15.0464C93.4101 14.8301 94.0851 14.7264 94.7628 14.7397C95.3578 14.7327 95.9477 14.8507 96.4942 15.0862C97.0425 15.3292 97.5348 15.6828 97.9403 16.1248C98.3831 16.5721 98.718 17.1148 98.9193 17.7112C99.1428 18.3817 99.2523 19.0849 99.2431 19.7917V31.3167H102.787V17.9144C102.802 16.9561 102.607 16.0062 102.216 15.1309Z" fill="#006838"/>
<path d="M124.957 17.186C124.531 16.0198 123.833 14.9721 122.921 14.1299C122.049 13.378 121.083 12.7422 120.047 12.2382C119.063 11.7639 118.012 11.4412 116.931 11.2811H116.749C116.686 11.2812 116.623 11.2673 116.566 11.2403H115.933C115.87 11.2401 115.808 11.2262 115.751 11.1996H115.382C114.136 11.1943 112.9 11.4217 111.738 11.87C110.536 12.3473 109.426 13.0294 108.458 13.8858C107.476 14.7508 106.698 15.821 106.176 17.0207C105.644 18.2983 105.38 19.6719 105.402 21.0558V21.1377C105.391 22.5072 105.605 23.8691 106.035 25.1693C106.453 26.4151 107.095 27.5744 107.929 28.5905C108.794 29.6402 109.928 30.4355 111.209 30.8915C112.747 31.4269 114.368 31.6828 115.996 31.647C117.201 31.6622 118.399 31.4694 119.538 31.0773C120.572 30.7139 121.508 30.1137 122.269 29.3245C123.024 28.5807 123.674 27.7379 124.202 26.8192C124.702 25.9458 125.08 25.0073 125.322 24.0304C125.379 23.8113 125.426 23.5958 125.467 23.3758C125.509 23.1558 125.54 22.9445 125.568 22.7241C125.568 22.6156 125.575 22.5073 125.59 22.3999C125.603 22.2912 125.609 22.1819 125.609 22.0725C125.637 21.9807 125.65 21.8853 125.65 21.7894V21.462C125.677 20.0067 125.443 18.5583 124.957 17.186ZM121.313 24.5795C121.066 25.4164 120.576 26.1614 119.906 26.7201C119.284 27.2065 118.58 27.5784 117.828 27.8183C117.037 28.0686 116.212 28.193 115.382 28.1869C114.567 28.204 113.754 28.0793 112.981 27.8183C112.323 27.5897 111.734 27.1977 111.269 26.6789C110.844 26.1778 110.475 25.6311 110.17 25.0488C109.877 24.4965 109.658 23.9081 109.519 23.2986C109.49 23.1067 109.456 22.9239 109.415 22.7478C109.374 22.5716 109.34 22.3888 109.314 22.1969C109.287 22.0146 109.273 21.8305 109.273 21.6461V20.4879C109.273 20.3775 109.287 20.2675 109.314 20.1605C109.34 20.0536 109.368 19.9414 109.396 19.8363C109.507 19.2006 109.705 18.5832 109.985 18.0015C110.277 17.3943 110.655 16.8317 111.105 16.3301C111.574 15.7836 112.179 15.3699 112.858 15.1307C113.67 14.8556 114.525 14.7245 115.382 14.7433C116.318 14.727 117.25 14.8784 118.133 15.1903C118.895 15.4656 119.585 15.9114 120.149 16.4936C120.691 17.0907 121.106 17.7913 121.37 18.5532C121.65 19.386 121.788 20.26 121.776 21.1386C121.805 22.3029 121.649 23.4643 121.313 24.5795Z" fill="#006838"/>
<path d="M148.103 20.6289C148.074 20.3423 148.033 20.037 147.98 19.713C147.952 19.3828 147.897 19.0554 147.816 18.734C147.735 18.4066 147.641 18.0824 147.53 17.7551C147.248 16.9192 146.843 16.1299 146.328 15.4133C145.773 14.6375 145.139 13.9213 144.436 13.2761C143.642 12.5515 142.696 12.0147 141.666 11.7056C140.435 11.3487 139.158 11.178 137.877 11.199H137.53C137.414 11.1976 137.297 11.2113 137.184 11.2398C137.061 11.239 136.938 11.2453 136.816 11.2586C136.709 11.2713 136.586 11.2932 136.451 11.3217C136.204 11.3476 135.959 11.3876 135.717 11.4413C135.472 11.4978 135.229 11.564 134.984 11.646C134.084 11.9189 133.227 12.3161 132.437 12.826C131.591 13.3795 130.818 14.0373 130.137 14.784C129.388 15.5962 128.825 16.5618 128.487 17.6135C128.102 18.8319 127.916 20.1045 127.937 21.3822V40H131.481V22.1153C131.468 21.2639 131.572 20.4148 131.788 19.5911C131.966 18.9114 132.277 18.2738 132.703 17.7152C133.082 17.205 133.513 16.7351 133.987 16.3129C134.412 15.9354 134.883 15.614 135.39 15.3563C135.601 15.2489 135.819 15.1532 136.041 15.0697C136.251 14.9901 136.47 14.9352 136.692 14.9063C136.895 14.8554 137.099 14.8155 137.306 14.7866C137.495 14.7587 137.685 14.7449 137.876 14.7455C138.658 14.7441 139.434 14.8959 140.158 15.1924C140.934 15.5188 141.65 15.973 142.276 16.5364C142.944 17.1221 143.466 17.8549 143.802 18.6771C144.154 19.5642 144.327 20.5118 144.313 21.4658C144.322 22.3571 144.191 23.2444 143.925 24.0951C143.676 24.8787 143.297 25.615 142.805 26.2735C142.321 26.9234 141.664 27.4244 140.91 27.7196C140.045 28.0479 139.125 28.2071 138.2 28.1885H137.671C137.521 28.1903 137.371 28.1765 137.224 28.1473C137.067 28.1485 136.91 28.1349 136.755 28.1065C136.604 28.0781 136.462 28.0531 136.327 28.0246C136.082 27.9711 135.83 27.9019 135.575 27.8199C135.32 27.738 135.049 27.6446 134.778 27.5368C134.508 27.429 134.203 27.2914 133.862 27.1275C133.522 26.9636 133.151 26.7626 132.742 26.5172V30.4295C133.313 30.7308 133.905 30.9895 134.514 31.2038C135.071 31.3926 135.566 31.5403 136 31.6508C136.462 31.7577 136.897 31.8396 137.306 31.8962C137.711 31.949 138.119 31.9753 138.527 31.975C139.75 31.8952 140.956 31.6485 142.112 31.2415C143.073 30.9064 143.949 30.3649 144.678 29.6552C145.346 29.0228 145.934 28.3115 146.43 27.5368C146.882 26.8205 147.251 26.055 147.529 25.2551C147.639 24.9277 147.733 24.6035 147.815 24.2761C147.896 23.9557 147.951 23.6294 147.979 23.3002C148.033 22.9729 148.073 22.6551 148.102 22.3431C148.13 22.0311 148.139 21.7388 148.139 21.4667C148.139 21.1946 148.126 20.9137 148.103 20.6289Z" fill="#006838"/>
<path d="M162.246 11.7694L160.005 15.6787C159.898 15.8978 159.786 16.1069 159.681 16.3111C159.576 16.5153 159.462 16.6984 159.354 16.8618C159.246 17.0253 159.135 17.1734 159.029 17.3088C158.925 17.4374 158.829 17.5731 158.743 17.715C158.576 17.9388 158.377 18.138 158.154 18.3067C157.961 18.4509 157.748 18.5674 157.522 18.6529C157.313 18.7392 157.094 18.8005 156.87 18.8356C156.627 18.8764 156.378 18.87 156.137 18.8168H154.223V3.07568H150.679V31.3207H154.223V22.3597L157.44 22.4412C158.121 22.4263 158.801 22.5149 159.456 22.7041C159.949 22.8388 160.385 23.1313 160.696 23.5367C160.994 23.8916 161.223 24.2995 161.37 24.7392C161.521 25.2061 161.596 25.6944 161.593 26.1853V31.3207H165.137V24.8054C165.114 24.7837 165.1 24.7547 165.096 24.7234V24.2321C165.016 23.721 164.872 23.222 164.668 22.7467C164.456 22.2545 164.176 21.7946 163.836 21.3807C163.475 20.94 163.014 20.5916 162.492 20.3641C161.897 20.1047 161.265 19.939 160.619 19.8728C160.927 19.8003 161.212 19.6546 161.451 19.4482C161.79 19.1618 162.097 18.8399 162.367 18.4881C162.695 18.0819 163.019 17.6348 163.346 17.144C163.674 16.6532 163.998 16.1274 164.322 15.5578C164.404 15.3939 164.491 15.2301 164.585 15.0665C164.682 14.903 164.783 14.7264 164.891 14.538C164.998 14.3741 165.099 14.2042 165.198 14.028C165.297 13.8518 165.394 13.6691 165.505 13.4771C165.558 13.4252 165.6 13.363 165.628 13.2944C165.66 13.216 165.7 13.1412 165.747 13.0709C165.776 13.0174 165.81 12.9548 165.851 12.8886C165.892 12.8175 165.926 12.7427 165.952 12.6651C166.004 12.6115 166.046 12.5484 166.075 12.4793C166.107 12.4003 166.148 12.3252 166.197 12.2558C166.223 12.2023 166.257 12.1332 166.298 12.0512C166.343 11.9614 166.377 11.8663 166.399 11.7681L162.246 11.7694Z" fill="#006838"/>
<path d="M187.968 20.6289C187.944 20.3423 187.903 20.037 187.846 19.713C187.82 19.3828 187.766 19.0552 187.685 18.734C187.603 18.4067 187.506 18.0824 187.399 17.7551C187.115 16.9197 186.71 16.1307 186.196 15.4133C185.64 14.6374 185.005 13.9212 184.301 13.2761C183.508 12.5509 182.562 12.0141 181.532 11.7056C180.302 11.3486 179.026 11.1778 177.745 11.199H177.399C177.282 11.1976 177.166 11.2113 177.053 11.2398C176.93 11.239 176.807 11.2453 176.684 11.2586C176.578 11.2713 176.455 11.2933 176.319 11.3217C176.073 11.3474 175.828 11.3873 175.586 11.4413C175.34 11.4979 175.095 11.5641 174.853 11.646C173.953 11.9189 173.096 12.316 172.306 12.8261C171.46 13.3795 170.687 14.0373 170.005 14.784C169.257 15.5971 168.693 16.5623 168.353 17.6135C167.97 18.8325 167.785 20.1048 167.805 21.3822V40H171.349V22.1153C171.337 21.2639 171.44 20.4148 171.656 19.5912C171.833 18.9111 172.145 18.2733 172.572 17.7152C172.95 17.2044 173.381 16.7344 173.856 16.3129C174.281 15.9356 174.752 15.6141 175.259 15.3564C175.47 15.2491 175.688 15.1534 175.91 15.0698C176.12 14.9901 176.339 14.9353 176.562 14.9063C176.763 14.8554 176.967 14.8155 177.172 14.7867C177.362 14.7588 177.554 14.745 177.745 14.7455C178.527 14.7442 179.301 14.896 180.024 15.1925C180.801 15.5179 181.517 15.9722 182.142 16.5364C182.812 17.1211 183.336 17.8541 183.672 18.6771C184.023 19.5643 184.196 20.5119 184.182 21.4659C184.191 22.3571 184.061 23.2443 183.795 24.0951C183.546 24.8787 183.167 25.615 182.674 26.2735C182.19 26.9226 181.534 27.4235 180.78 27.7196C179.915 28.0478 178.995 28.207 178.07 28.1885H177.541C177.391 28.1903 177.241 28.1765 177.094 28.1473C176.937 28.1486 176.78 28.1349 176.625 28.1066C176.474 28.0781 176.332 28.0531 176.197 28.0246C175.951 27.9712 175.699 27.9019 175.441 27.82C175.183 27.738 174.919 27.6447 174.648 27.5369C174.377 27.4291 174.072 27.2914 173.732 27.1275C173.393 26.9637 173.018 26.7626 172.612 26.5172V30.4295C173.183 30.7309 173.775 30.9896 174.384 31.2038C174.941 31.3927 175.436 31.5403 175.869 31.6508C176.332 31.7577 176.766 31.8395 177.172 31.8962C177.578 31.949 177.987 31.9754 178.397 31.975C179.62 31.8953 180.826 31.6485 181.982 31.2416C182.943 30.9064 183.818 30.3649 184.547 29.6552C185.214 29.022 185.803 28.3108 186.3 27.5369C186.752 26.8207 187.12 26.0551 187.398 25.2551C187.505 24.9277 187.603 24.6035 187.685 24.2762C187.766 23.956 187.819 23.6295 187.845 23.3002C187.902 22.9729 187.943 22.6552 187.968 22.3432C187.993 22.0311 188.009 21.7389 188.009 21.4667C188.009 21.1946 187.997 20.9138 187.968 20.6289Z" fill="#006838"/>
<path d="M198.752 11.1993C198.314 11.1965 197.877 11.244 197.449 11.3409C197.068 11.4257 196.698 11.5556 196.347 11.7278C196.025 11.8741 195.718 12.0517 195.43 12.258C195.179 12.444 194.941 12.6482 194.719 12.8689L194.474 13.1144C194.397 13.1889 194.329 13.2711 194.269 13.3597C194.203 13.4223 194.142 13.4898 194.086 13.5613C194.05 13.6137 194.002 13.6558 193.945 13.6839V11.7703H190.401V31.3203H193.945V21.7497C193.945 21.5043 193.957 21.2208 193.986 20.8935C193.986 20.5791 194.013 20.2653 194.067 19.9556C194.126 19.6118 194.207 19.2723 194.31 18.9391C194.45 18.4675 194.635 18.0102 194.861 17.5731C195.1 17.1125 195.395 16.6824 195.737 16.2918C196.134 15.8716 196.603 15.5261 197.122 15.272C197.742 14.9767 198.401 14.7712 199.08 14.6617H200.056V11.1187L198.752 11.1993Z" fill="#006838"/>
<path d="M1.09691 30.3663L4.01549 31.3203C4.62141 31.5184 5.27318 31.1878 5.47125 30.5818L10.7784 14.3466C10.9764 13.7407 10.6458 13.0889 10.0399 12.8909L7.1213 11.9368C6.51538 11.7387 5.86362 12.0694 5.66555 12.6753L0.35843 28.9105C0.16036 29.5164 0.490991 30.1682 1.09691 30.3663Z" fill="#006838"/>
<path d="M32.6221 30.1692V13.0886C32.6221 12.4511 32.1053 11.9343 31.4678 11.9343L14.3872 11.9343C13.7497 11.9343 13.2329 12.4511 13.2329 13.0886V30.1692C13.2329 30.8067 13.7497 31.3235 14.3872 31.3235H31.4678C32.1053 31.3235 32.6221 30.8067 32.6221 30.1692Z" fill="#006838"/>
<path d="M56.606 8.68254L57.3308 5.69877C57.4813 5.07932 57.1012 4.45515 56.4817 4.30466L39.8839 0.272348C39.2644 0.121856 38.6402 0.502027 38.4898 1.12148L37.7649 4.10525C37.6144 4.7247 37.9946 5.34887 38.614 5.49936L55.2118 9.53167C55.8313 9.68216 56.4555 9.30199 56.606 8.68254Z" fill="#006838"/>
<path d="M39.0075 31.3235L56.0881 31.3235C56.7256 31.3235 57.2424 30.8067 57.2424 30.1692V13.0886C57.2424 12.4511 56.7256 11.9344 56.0881 11.9344L39.0075 11.9344C38.37 11.9344 37.8532 12.4511 37.8532 13.0886V30.1692C37.8532 30.8067 38.37 31.3235 39.0075 31.3235Z" fill="#006838"/>
</g>
<defs>
<clipPath id="clip0">
<rect width="200.055" height="40" fill="white"/>
</clipPath>
</defs>
</svg>
